<svg width="621" height="464" viewBox="0 0 621 464" fill="none" xmlns="http://www.w3.org/2000/svg">
<path d="M248.552 142.253L245.592 139.293C213.201 106.902 160.685 106.902 128.293 139.293C95.9022 171.685 95.9022 224.201 128.293 256.592L248.947 377.245L369.596 256.596C400.95 225.242 401.955 175.031 372.61 142.468C371.638 141.391 370.634 140.332 369.596 139.294C337.204 106.902 284.686 106.902 252.294 139.294C251.169 140.419 250.084 141.567 249.038 142.739C219.941 175.308 221.027 225.328 252.294 256.596L372.687 376.989L493.084 256.592C525.475 224.201 525.475 171.685 493.084 139.293C460.693 106.902 408.176 106.902 375.785 139.293L373.762 141.316" stroke="#0B9A4D" stroke-width="7" class="svg-elem-1"></path>
</svg>
